PathFileType	4	(X/Y/Z)	D:\TRACE\spotREDO_2-26-24\spot_baseline_5-v60.trc
DataRate	CameraRate	NumFrames	NumMarkers	Units	OrigDataRate	OrigDataStartFrame	OrigNumFrames
100.00	100.00	      28	9	mm	100.00	3501	      7000
Frame#	Time	front left toe			Front right toe			aft left toe			aft right toe			Arm			FL body			FR body			AL Body			AR Body			
		X1	Y1	Z1	X2	Y2	Z2	X3	Y3	Z3	X4	Y4	Z4	X5	Y5	Z5	X6	Y6	Z6	X7	Y7	Z7	X8	Y8	Z8	X9	Y9	Z9	

3501	35.000	-202.49886	23.37627	-95.19870	263.89850	20.53158	-46.75443	-248.05394	24.05757	344.73672	219.78519	22.79299	392.18658	86.65047	809.34991	-295.30957	6.19620	548.50879	-278.51260	161.36971	555.86230	-266.10806	-72.79470	558.09723	601.88666	75.43353	560.47803	615.74286	
3502	35.010	-202.53568	23.39005	-95.19221	263.88068	20.64813	-46.75612	-248.11661	24.09406	344.79068	220.20361	23.20236	392.28745	85.84032	809.37732	-295.17593	5.43641	548.43579	-278.42734	160.52301	556.03815	-266.11783	-73.68493	557.85565	601.76740	74.72718	560.55847	615.50800	
3503	35.020	-202.64281	23.28782	-95.17779	263.82455	20.65479	-46.82911	-248.19908	24.08509	344.78519	220.13306	23.29140	392.22595	84.93739	809.28845	-295.06058	4.79061	548.45911	-278.34692	159.96320	556.06989	-266.11069	-74.21688	557.70795	601.62531	73.90400	560.64471	615.45667	
3504	35.030	-202.71370	23.16929	-95.14863	263.78958	20.71693	-46.87667	-248.25401	23.97269	344.80563	220.06123	23.37031	392.21332	84.26462	809.25067	-294.79959	4.31429	548.38574	-278.28619	159.27226	556.05634	-265.90500	-74.79048	557.53986	601.99597	73.38436	560.48547	615.49359	
3505	35.040	-202.75899	23.05988	-95.11156	263.73700	20.76153	-46.86224	-248.33331	23.80453	344.81937	220.10280	23.38337	392.22519	83.52827	809.25867	-294.66135	3.58070	548.29706	-278.15710	158.78575	555.96741	-265.74609	-75.43655	557.30450	601.95044	72.67384	560.41437	615.66333	
3506	35.050	-202.81735	23.08666	-95.08102	263.86783	20.84041	-46.71507	-248.39177	23.82911	344.84470	220.04436	23.41730	392.19736	82.63593	809.30426	-294.60086	2.87044	548.30731	-278.22174	158.30934	556.01526	-265.58618	-76.24816	557.26813	601.83264	71.94632	560.51282	615.65692	
3507	35.060	-202.91762	23.04849	-95.00642	263.62469	20.83155	-46.91799	-248.40627	23.90405	344.86063	219.95561	23.54749	392.25281	81.92811	809.17645	-294.81406	2.25568	548.25055	-278.09833	157.86426	556.06384	-265.47586	-76.72916	557.23785	601.95032	71.45432	560.43567	616.00171	
3508	35.070	-203.00406	23.05231	-95.01015	263.78687	20.92961	-46.80769	-248.49550	23.83558	344.88535	219.93085	23.58593	392.21729	81.16622	809.18927	-294.83060	1.65096	548.18457	-277.92914	157.00435	556.09814	-265.50323	-77.41326	557.24384	602.17969	71.26057	560.46503	616.47839	
3509	35.080	-202.99448	23.01159	-94.98930	263.76776	20.97799	-46.79160	-248.52740	23.72492	344.87372	219.92186	23.61469	392.21539	80.31054	809.20905	-294.71970	1.19377	548.08209	-277.97455	156.28510	555.68793	-265.18442	-77.93667	557.26221	602.36597	70.67110	560.48071	616.53070	
3510	35.090	-203.04153	22.90889	-94.95204	263.60730	20.88088	-46.89104	-248.57181	23.65965	344.87616	219.89606	23.55378	392.17004	79.75381	808.96918	-294.62106	0.71806	547.93781	-277.85703	155.79219	555.87335	-265.51138	-78.76810	557.25494	602.13519	69.65604	560.48212	616.33527	
3511	35.100	-203.09836	22.84422	-94.97896	263.57632	20.91733	-46.86692	-248.57483	23.62646	344.86230	219.81873	23.57055	392.14151	79.26546	808.90027	-294.58557	0.03742	547.75330	-277.77121	155.17868	555.81201	-265.56979	-79.11545	557.19232	602.42163	69.01644	560.52454	616.42816	
3512	35.110	-203.14998	22.79422	-94.91023	263.95462	21.19704	-46.54067	-248.63869	23.61824	344.90067	219.81186	23.66594	392.18790	78.77573	808.84052	-294.52371	-0.42476	547.58075	-277.63834	154.77612	555.71332	-265.45721	-79.92689	557.37909	602.55975	68.48120	560.57220	616.47034	
3513	35.120	-203.26396	22.86866	-94.86198	263.72217	21.18390	-46.72704	-248.62396	23.59713	344.95770	219.80794	23.75693	392.20078	78.37888	808.83051	-294.40845	-0.97403	547.58936	-277.48337	154.25047	555.75238	-265.16568	-80.74019	557.40942	602.33368	67.75286	560.68945	616.49695	
3514	35.130	-203.27786	22.90259	-94.84466	263.81885	21.31086	-46.67260	-248.70367	23.59820	344.97144	219.69511	23.88627	392.17368	77.77095	808.84753	-294.38901	-1.55899	547.60950	-277.44052	153.47914	555.73645	-265.06094	-81.14219	557.53033	602.44897	67.13987	560.76379	616.50092	
3515	35.140	-203.32596	22.84573	-94.86983	263.57443	21.24441	-46.69783	-248.72980	23.57318	344.92816	219.66521	23.83942	392.12131	77.23782	808.82861	-294.32156	-2.15828	547.61450	-277.53384	152.86836	555.71143	-265.04608	-81.81335	557.57123	602.32343	66.32916	560.79462	616.54150	
3516	35.150	-203.32504	22.76393	-94.90472	263.62958	21.28753	-46.65438	-248.71208	23.57923	344.90790	219.66283	23.91801	392.09549	76.69495	808.80560	-294.45383	-2.72344	547.64996	-277.60751	152.41911	555.37860	-264.75912	-82.55942	557.56891	602.27155	65.75111	560.77588	616.57813	
3517	35.160	-203.35074	22.75899	-94.89153	263.65729	21.38980	-46.62151	-248.70821	23.56224	344.91476	219.63074	24.01516	392.11258	76.26013	808.80573	-294.56964	-3.35474	547.76434	-277.64975	151.73508	555.58325	-265.17053	-83.26653	557.67706	602.29980	65.24596	560.80072	616.58545	
3518	35.170	-203.48093	22.83885	-94.87238	263.64859	21.48358	-46.66084	-248.81683	23.54848	344.91675	219.62901	24.08653	392.12604	75.85483	808.79242	-294.49249	-3.95881	547.93787	-277.55658	151.16295	555.65466	-265.10034	-83.61307	557.75482	602.58221	64.92551	560.84814	616.92694	
3519	35.180	-203.52142	22.87073	-94.84917	263.69324	21.60926	-46.61452	-248.84766	23.51522	344.93857	219.55177	24.10880	392.12894	75.51737	808.84161	-294.36847	-4.52496	548.09454	-277.45987	150.71495	555.67493	-265.06018	-84.18149	558.01312	602.73230	64.25224	560.89246	616.69366	
3520	35.190	-203.62282	22.89878	-94.86311	263.56436	21.58554	-46.61228	-248.90915	23.47502	344.96457	219.48892	24.11338	392.14087	75.06620	808.94177	-294.36676	-5.00637	548.18341	-277.37137	150.08913	555.50085	-264.92847	-84.87874	558.09119	602.74640	63.55543	560.77783	616.70844	
3521	35.200	-203.61487	22.85844	-94.88680	263.49496	21.63501	-46.61781	-248.95137	23.41963	344.99701	219.48064	24.10495	392.14441	74.64547	808.87708	-294.32578	-5.61383	548.20160	-277.29654	149.44135	555.41669	-264.84338	-85.39711	558.18445	602.96002	62.86074	560.75269	616.73242	
3522	35.210	-203.61575	22.76700	-94.91182	263.63443	21.85270	-46.51488	-249.04662	23.31349	345.03284	219.50714	24.14442	392.09100	74.34041	808.80481	-294.21768	-6.30463	548.17615	-277.21759	148.78687	555.44421	-264.91855	-85.65428	558.21277	602.88501	62.35559	560.70508	616.67609	
3523	35.220	-203.66975	22.75885	-94.92177	263.53125	21.82696	-46.54259	-249.10254	23.29626	345.02438	219.48216	24.12010	392.06271	74.06595	808.79858	-294.07343	-6.84810	548.25122	-277.07690	148.35007	555.36694	-264.90082	-86.48396	558.33685	602.76172	61.84484	560.66302	616.71399	
3524	35.230	-203.69562	22.77628	-94.86499	263.44635	21.79032	-46.61936	-249.07277	23.37509	345.05411	219.38750	24.12803	392.09033	73.79015	808.79895	-293.93597	-7.51092	548.45087	-277.13123	147.73253	554.96454	-264.45703	-86.76972	558.53070	602.97375	61.55139	560.66730	616.85291	
3525	35.240	-203.72874	22.81786	-94.89534	263.60196	21.91722	-46.52566	-249.10516	23.34748	345.03653	219.32845	24.13905	392.06229	73.43422	808.92004	-293.85635	-8.11135	548.59869	-277.14630	147.36269	554.95551	-264.36591	-87.34209	558.61292	602.88354	61.01290	560.67731	616.89404	
3526	35.250	-203.76117	22.74168	-94.85758	263.49738	21.91623	-46.60721	-249.23544	23.19780	344.99396	219.31430	24.14160	392.05762	73.22561	808.96466	-293.81232	-8.53832	548.62292	-277.05856	146.77876	555.09918	-264.68951	-88.03622	558.62775	602.76642	60.50683	560.50623	617.13275	
3527	35.260	-203.76146	22.68143	-94.87202	263.35693	21.77436	-46.65148	-249.27534	23.13606	344.97238	219.28264	24.15556	392.02591	73.07398	808.94720	-293.81534	-9.25036	548.80847	-277.08560	146.02052	554.99066	-264.64856	-88.28474	558.74084	602.94354	60.02072	560.39771	617.18390	
3528	35.270	-203.79372	22.58425	-94.87750	263.30450	21.94047	-46.58318	-249.19325	23.09588	344.92947	219.15871	24.15056	392.00452	72.81039	808.98737	-293.80838	-9.75668	548.92352	-277.12311	145.42986	555.07477	-264.69501	-88.72170	558.74976	602.99701	59.32282	560.39264	616.98438	
